<svg width="222" height="54" viewBox="0 0 222 54" fill="none" xmlns="http://www.w3.org/2000/svg">
<path d="M48.9922 24C48.7722 24 48.5822 23.93 48.4222 23.79C48.2622 23.63 48.1822 23.43 48.1822 23.19V3.81C48.1822 3.59 48.2622 3.4 48.4222 3.24C48.5822 3.08 48.7722 3 48.9922 3H54.8722C55.0922 3 55.2822 3.08 55.4422 3.24C55.6022 3.4 55.6822 3.59 55.6822 3.81V10.11H60.5422V3.81C60.5422 3.59 60.6222 3.4 60.7822 3.24C60.9422 3.08 61.1322 3 61.3522 3H67.2322C67.4522 3 67.6422 3.08 67.8022 3.24C67.9622 3.4 68.0422 3.59 68.0422 3.81V23.19C68.0422 23.41 67.9622 23.6 67.8022 23.76C67.6422 23.92 67.4522 24 67.2322 24H61.3522C61.1322 24 60.9422 23.92 60.7822 23.76C60.6222 23.6 60.5422 23.41 60.5422 23.19V16.71H55.6822V23.19C55.6822 23.41 55.6022 23.6 55.4422 23.76C55.2822 23.92 55.0922 24 54.8722 24H48.9922ZM80.8361 24.3C78.8761 24.3 77.1561 24 75.6761 23.4C74.2161 22.8 73.0561 21.9 72.1961 20.7C71.3561 19.48 70.8961 17.98 70.8161 16.2C70.7961 15.38 70.7861 14.51 70.7861 13.59C70.7861 12.67 70.7961 11.78 70.8161 10.92C70.8961 9.16 71.3561 7.67 72.1961 6.45C73.0361 5.23 74.1961 4.3 75.6761 3.66C77.1561 3.02 78.8761 2.7 80.8361 2.7C82.7961 2.7 84.5161 3.02 85.9961 3.66C87.4761 4.3 88.6361 5.23 89.4761 6.45C90.3361 7.67 90.7961 9.16 90.8561 10.92C90.8961 11.78 90.9161 12.67 90.9161 13.59C90.9161 14.51 90.8961 15.38 90.8561 16.2C90.7761 17.98 90.3061 19.48 89.4461 20.7C88.6061 21.9 87.4461 22.8 85.9661 23.4C84.5061 24 82.7961 24.3 80.8361 24.3ZM80.8361 18.45C81.4961 18.45 82.0261 18.26 82.4261 17.88C82.8261 17.48 83.0361 16.86 83.0561 16.02C83.0961 15.16 83.1161 14.31 83.1161 13.47C83.1161 12.63 83.0961 11.8 83.0561 10.98C83.0361 10.42 82.9261 9.96 82.7261 9.6C82.5461 9.24 82.2961 8.98 81.9761 8.82C81.6561 8.64 81.2761 8.55 80.8361 8.55C80.4161 8.55 80.0361 8.64 79.6961 8.82C79.3761 8.98 79.1161 9.24 78.9161 9.6C78.7361 9.96 78.6361 10.42 78.6161 10.98C78.5961 11.8 78.5861 12.63 78.5861 13.47C78.5861 14.31 78.5961 15.16 78.6161 16.02C78.6561 16.86 78.8661 17.48 79.2461 17.88C79.6461 18.26 80.1761 18.45 80.8361 18.45ZM94.4317 24C94.2117 24 94.0217 23.92 93.8617 23.76C93.7017 23.6 93.6217 23.41 93.6217 23.19V3.81C93.6217 3.59 93.7017 3.4 93.8617 3.24C94.0217 3.08 94.2117 3 94.4317 3H103.312C106.192 3 108.442 3.65 110.062 4.95C111.682 6.25 112.492 8.03 112.492 10.29C112.492 11.63 112.182 12.8 111.562 13.8C110.962 14.78 110.192 15.57 109.252 16.17L112.942 23.01C113.002 23.13 113.032 23.24 113.032 23.34C113.032 23.52 112.962 23.68 112.822 23.82C112.702 23.94 112.552 24 112.372 24H106.222C105.822 24 105.522 23.9 105.322 23.7C105.122 23.5 104.992 23.33 104.932 23.19L102.352 17.46H101.122V23.19C101.122 23.41 101.042 23.6 100.882 23.76C100.722 23.92 100.532 24 100.312 24H94.4317ZM101.122 11.76H103.312C103.772 11.76 104.112 11.61 104.332 11.31C104.572 10.99 104.692 10.63 104.692 10.23C104.692 9.83 104.582 9.46 104.362 9.12C104.162 8.76 103.812 8.58 103.312 8.58H101.122V11.76ZM124.032 24.3C121.812 24.3 119.982 24 118.542 23.4C117.102 22.8 116.022 22.01 115.302 21.03C114.582 20.05 114.202 19.01 114.162 17.91C114.162 17.73 114.222 17.58 114.342 17.46C114.482 17.32 114.642 17.25 114.822 17.25H120.522C120.842 17.25 121.082 17.3 121.242 17.4C121.422 17.48 121.612 17.6 121.812 17.76C122.012 17.9 122.212 18.03 122.412 18.15C122.632 18.25 122.872 18.33 123.132 18.39C123.412 18.43 123.712 18.45 124.032 18.45C124.712 18.45 125.252 18.38 125.652 18.24C126.072 18.08 126.282 17.87 126.282 17.61C126.282 17.37 126.162 17.17 125.922 17.01C125.702 16.85 125.312 16.71 124.752 16.59C124.192 16.45 123.412 16.32 122.412 16.2C120.832 15.98 119.462 15.61 118.302 15.09C117.142 14.57 116.242 13.86 115.602 12.96C114.982 12.04 114.672 10.92 114.672 9.6C114.672 8.24 115.052 7.04 115.812 6C116.592 4.96 117.662 4.15 119.022 3.57C120.402 2.99 122.002 2.7 123.822 2.7C125.322 2.7 126.652 2.9 127.812 3.3C128.972 3.68 129.952 4.19 130.752 4.83C131.552 5.45 132.162 6.12 132.582 6.84C133.002 7.56 133.222 8.25 133.242 8.91C133.242 9.09 133.172 9.25 133.032 9.39C132.912 9.51 132.772 9.57 132.612 9.57H126.612C126.332 9.57 126.102 9.53 125.922 9.45C125.762 9.37 125.592 9.25 125.412 9.09C125.312 8.99 125.122 8.88 124.842 8.76C124.582 8.62 124.242 8.55 123.822 8.55C123.322 8.55 122.952 8.63 122.712 8.79C122.492 8.93 122.382 9.13 122.382 9.39C122.382 9.57 122.472 9.74 122.652 9.9C122.832 10.06 123.162 10.2 123.642 10.32C124.122 10.44 124.812 10.56 125.712 10.68C127.712 10.92 129.312 11.31 130.512 11.85C131.732 12.37 132.612 13.07 133.152 13.95C133.712 14.83 133.992 15.92 133.992 17.22C133.992 18.68 133.552 19.94 132.672 21C131.812 22.06 130.632 22.88 129.132 23.46C127.632 24.02 125.932 24.3 124.032 24.3ZM137 24C136.78 24 136.59 23.92 136.43 23.76C136.27 23.6 136.19 23.41 136.19 23.19V3.81C136.19 3.59 136.27 3.4 136.43 3.24C136.59 3.08 136.78 3 137 3H152.39C152.61 3 152.8 3.08 152.96 3.24C153.12 3.4 153.2 3.59 153.2 3.81V8.04C153.2 8.26 153.12 8.45 152.96 8.61C152.8 8.77 152.61 8.85 152.39 8.85H143.39V10.74H151.73C151.95 10.74 152.14 10.82 152.3 10.98C152.46 11.14 152.54 11.33 152.54 11.55V15.45C152.54 15.67 152.46 15.86 152.3 16.02C152.14 16.18 151.95 16.26 151.73 16.26H143.39V18.15H152.63C152.85 18.15 153.04 18.23 153.2 18.39C153.36 18.55 153.44 18.74 153.44 18.96V23.19C153.44 23.41 153.36 23.6 153.2 23.76C153.04 23.92 152.85 24 152.63 24H137ZM164.96 24.3C162.74 24.3 160.91 24 159.47 23.4C158.03 22.8 156.95 22.01 156.23 21.03C155.51 20.05 155.13 19.01 155.09 17.91C155.09 17.73 155.15 17.58 155.27 17.46C155.41 17.32 155.57 17.25 155.75 17.25H161.45C161.77 17.25 162.01 17.3 162.17 17.4C162.35 17.48 162.54 17.6 162.74 17.76C162.94 17.9 163.14 18.03 163.34 18.15C163.56 18.25 163.8 18.33 164.06 18.39C164.34 18.43 164.64 18.45 164.96 18.45C165.64 18.45 166.18 18.38 166.58 18.24C167 18.08 167.21 17.87 167.21 17.61C167.21 17.37 167.09 17.17 166.85 17.01C166.63 16.85 166.24 16.71 165.68 16.59C165.12 16.45 164.34 16.32 163.34 16.2C161.76 15.98 160.39 15.61 159.23 15.09C158.07 14.57 157.17 13.86 156.53 12.96C155.91 12.04 155.6 10.92 155.6 9.6C155.6 8.24 155.98 7.04 156.74 6C157.52 4.96 158.59 4.15 159.95 3.57C161.33 2.99 162.93 2.7 164.75 2.7C166.25 2.7 167.58 2.9 168.74 3.3C169.9 3.68 170.88 4.19 171.68 4.83C172.48 5.45 173.09 6.12 173.51 6.84C173.93 7.56 174.15 8.25 174.17 8.91C174.17 9.09 174.1 9.25 173.96 9.39C173.84 9.51 173.7 9.57 173.54 9.57H167.54C167.26 9.57 167.03 9.53 166.85 9.45C166.69 9.37 166.52 9.25 166.34 9.09C166.24 8.99 166.05 8.88 165.77 8.76C165.51 8.62 165.17 8.55 164.75 8.55C164.25 8.55 163.88 8.63 163.64 8.79C163.42 8.93 163.31 9.13 163.31 9.39C163.31 9.57 163.4 9.74 163.58 9.9C163.76 10.06 164.09 10.2 164.57 10.32C165.05 10.44 165.74 10.56 166.64 10.68C168.64 10.92 170.24 11.31 171.44 11.85C172.66 12.37 173.54 13.07 174.08 13.95C174.64 14.83 174.92 15.92 174.92 17.22C174.92 18.68 174.48 19.94 173.6 21C172.74 22.06 171.56 22.88 170.06 23.46C168.56 24.02 166.86 24.3 164.96 24.3Z" fill="black"/>
<path d="M50.6637 42C50.5757 42 50.4997 41.968 50.4357 41.904C50.3717 41.84 50.3397 41.764 50.3397 41.676V33.924C50.3397 33.836 50.3717 33.76 50.4357 33.696C50.4997 33.632 50.5757 33.6 50.6637 33.6H53.0637C53.1517 33.6 53.2277 33.632 53.2917 33.696C53.3557 33.76 53.3877 33.836 53.3877 33.924V39.54H56.7117C56.7997 39.54 56.8757 39.572 56.9397 39.636C57.0037 39.7 57.0357 39.776 57.0357 39.864V41.676C57.0357 41.764 57.0037 41.84 56.9397 41.904C56.8757 41.968 56.7997 42 56.7117 42H50.6637ZM58.0554 42C57.9674 42 57.8914 41.968 57.8274 41.904C57.7634 41.84 57.7314 41.764 57.7314 41.676V36.084C57.7314 35.996 57.7634 35.92 57.8274 35.856C57.8914 35.792 57.9674 35.76 58.0554 35.76H60.2034C60.2914 35.76 60.3674 35.792 60.4314 35.856C60.4954 35.92 60.5274 35.996 60.5274 36.084V41.676C60.5274 41.764 60.4954 41.84 60.4314 41.904C60.3674 41.968 60.2914 42 60.2034 42H58.0554ZM58.1154 35.1C58.0274 35.1 57.9514 35.068 57.8874 35.004C57.8234 34.94 57.7914 34.864 57.7914 34.776V33.324C57.7914 33.236 57.8234 33.16 57.8874 33.096C57.9514 33.032 58.0274 33 58.1154 33H60.1434C60.2314 33 60.3074 33.032 60.3714 33.096C60.4354 33.16 60.4674 33.236 60.4674 33.324V34.776C60.4674 34.864 60.4354 34.94 60.3714 35.004C60.3074 35.068 60.2314 35.1 60.1434 35.1H58.1154ZM61.9343 42C61.8463 42 61.7703 41.968 61.7063 41.904C61.6423 41.84 61.6103 41.764 61.6103 41.676V33.804C61.6103 33.716 61.6423 33.64 61.7063 33.576C61.7703 33.512 61.8463 33.48 61.9343 33.48H64.0343C64.1223 33.48 64.1983 33.512 64.2623 33.576C64.3263 33.64 64.3583 33.716 64.3583 33.804V37.692L65.4143 35.964C65.4303 35.932 65.4663 35.892 65.5223 35.844C65.5783 35.788 65.6583 35.76 65.7623 35.76H68.1863C68.2663 35.76 68.3343 35.788 68.3903 35.844C68.4463 35.9 68.4743 35.968 68.4743 36.048C68.4743 36.08 68.4663 36.116 68.4503 36.156C68.4423 36.188 68.4303 36.212 68.4143 36.228L66.7703 38.568L68.7143 41.556C68.7463 41.604 68.7623 41.656 68.7623 41.712C68.7623 41.792 68.7343 41.86 68.6783 41.916C68.6223 41.972 68.5543 42 68.4743 42H65.9543C65.8343 42 65.7463 41.972 65.6903 41.916C65.6343 41.852 65.5983 41.812 65.5823 41.796L64.3583 39.756V41.676C64.3583 41.764 64.3263 41.84 64.2623 41.904C64.1983 41.968 64.1223 42 64.0343 42H61.9343ZM72.2797 42.12C71.2317 42.12 70.3957 41.864 69.7717 41.352C69.1557 40.832 68.8477 40.012 68.8477 38.892C68.8477 38.876 68.8477 38.86 68.8477 38.844C68.8477 38.828 68.8477 38.816 68.8477 38.808C68.8637 38.12 69.0117 37.54 69.2917 37.068C69.5797 36.596 69.9757 36.24 70.4797 36C70.9917 35.76 71.5877 35.64 72.2677 35.64C73.0517 35.64 73.6957 35.792 74.1997 36.096C74.7037 36.392 75.0757 36.788 75.3157 37.284C75.5637 37.772 75.6877 38.312 75.6877 38.904V39.264C75.6877 39.352 75.6557 39.428 75.5917 39.492C75.5277 39.556 75.4517 39.588 75.3637 39.588H71.7877C71.7877 39.596 71.7877 39.604 71.7877 39.612C71.7877 39.62 71.7877 39.632 71.7877 39.648C71.7877 39.808 71.7997 39.944 71.8237 40.056C71.8557 40.16 71.9077 40.24 71.9797 40.296C72.0517 40.352 72.1437 40.38 72.2557 40.38C72.3037 40.38 72.3437 40.372 72.3757 40.356C72.4157 40.34 72.4517 40.316 72.4837 40.284C72.5237 40.244 72.5637 40.204 72.6037 40.164C72.6757 40.092 72.7357 40.048 72.7837 40.032C72.8317 40.008 72.9037 39.996 72.9997 39.996H75.2677C75.3477 39.996 75.4117 40.02 75.4597 40.068C75.5157 40.116 75.5397 40.18 75.5317 40.26C75.5237 40.412 75.4517 40.596 75.3157 40.812C75.1877 41.02 74.9917 41.224 74.7277 41.424C74.4637 41.624 74.1277 41.792 73.7197 41.928C73.3117 42.056 72.8317 42.12 72.2797 42.12ZM71.7877 38.088H72.7477V38.076C72.7477 37.9 72.7277 37.756 72.6877 37.644C72.6557 37.532 72.6037 37.452 72.5317 37.404C72.4597 37.348 72.3717 37.32 72.2677 37.32C72.1637 37.32 72.0757 37.348 72.0037 37.404C71.9317 37.452 71.8757 37.532 71.8357 37.644C71.8037 37.756 71.7877 37.9 71.7877 38.076V38.088ZM79.1988 42C79.1108 42 79.0348 41.968 78.9708 41.904C78.9068 41.84 78.8748 41.764 78.8748 41.676V33.924C78.8748 33.836 78.9068 33.76 78.9708 33.696C79.0348 33.632 79.1108 33.6 79.1988 33.6H82.6548C83.4068 33.6 84.0788 33.728 84.6708 33.984C85.2628 34.232 85.7348 34.6 86.0868 35.088C86.4468 35.576 86.6388 36.18 86.6628 36.9C86.6788 37.244 86.6868 37.548 86.6868 37.812C86.6868 38.068 86.6788 38.36 86.6628 38.688C86.6308 39.44 86.4468 40.064 86.1108 40.56C85.7748 41.048 85.3148 41.412 84.7308 41.652C84.1548 41.884 83.4828 42 82.7148 42H79.1988ZM81.8748 39.66H82.6548C82.8308 39.66 82.9868 39.628 83.1228 39.564C83.2668 39.492 83.3828 39.384 83.4708 39.24C83.5588 39.096 83.6068 38.912 83.6148 38.688C83.6308 38.456 83.6388 38.248 83.6388 38.064C83.6468 37.88 83.6468 37.696 83.6388 37.512C83.6388 37.32 83.6308 37.116 83.6148 36.9C83.5988 36.564 83.4908 36.32 83.2908 36.168C83.0988 36.016 82.8668 35.94 82.5948 35.94H81.8748V39.66ZM90.9497 42.12C90.2137 42.12 89.5937 42.02 89.0897 41.82C88.5857 41.62 88.1977 41.32 87.9257 40.92C87.6617 40.52 87.5097 40.028 87.4697 39.444C87.4617 39.26 87.4577 39.072 87.4577 38.88C87.4577 38.68 87.4617 38.492 87.4697 38.316C87.5097 37.724 87.6737 37.232 87.9617 36.84C88.2497 36.44 88.6457 36.14 89.1497 35.94C89.6537 35.74 90.2537 35.64 90.9497 35.64C91.6457 35.64 92.2457 35.74 92.7497 35.94C93.2537 36.14 93.6497 36.44 93.9377 36.84C94.2257 37.232 94.3897 37.724 94.4297 38.316C94.4457 38.492 94.4537 38.68 94.4537 38.88C94.4537 39.072 94.4457 39.26 94.4297 39.444C94.3897 40.028 94.2337 40.52 93.9617 40.92C93.6977 41.32 93.3137 41.62 92.8097 41.82C92.3057 42.02 91.6857 42.12 90.9497 42.12ZM90.9497 40.2C91.1817 40.2 91.3257 40.136 91.3817 40.008C91.4377 39.872 91.4737 39.664 91.4897 39.384C91.4977 39.264 91.5017 39.096 91.5017 38.88C91.5017 38.664 91.4977 38.496 91.4897 38.376C91.4737 38.112 91.4377 37.912 91.3817 37.776C91.3257 37.632 91.1817 37.56 90.9497 37.56C90.7257 37.56 90.5817 37.632 90.5177 37.776C90.4617 37.912 90.4257 38.112 90.4097 38.376C90.4017 38.496 90.3977 38.664 90.3977 38.88C90.3977 39.096 90.4017 39.264 90.4097 39.384C90.4257 39.664 90.4617 39.872 90.5177 40.008C90.5817 40.136 90.7257 40.2 90.9497 40.2ZM95.6609 42C95.5729 42 95.4969 41.968 95.4329 41.904C95.3689 41.84 95.3369 41.764 95.3369 41.676V36.084C95.3369 35.996 95.3689 35.92 95.4329 35.856C95.4969 35.792 95.5729 35.76 95.6609 35.76H97.6409C97.7289 35.76 97.8049 35.792 97.8689 35.856C97.9329 35.92 97.9649 35.996 97.9649 36.084V36.48C98.1009 36.296 98.3129 36.116 98.6009 35.94C98.8969 35.756 99.2409 35.656 99.6329 35.64C100.577 35.608 101.209 35.936 101.529 36.624C101.713 36.344 101.973 36.112 102.309 35.928C102.645 35.736 102.997 35.64 103.365 35.64C103.773 35.64 104.141 35.732 104.469 35.916C104.805 36.1 105.073 36.388 105.273 36.78C105.473 37.172 105.573 37.684 105.573 38.316V41.676C105.573 41.764 105.541 41.84 105.477 41.904C105.413 41.968 105.337 42 105.249 42H103.137C103.049 42 102.973 41.968 102.909 41.904C102.845 41.84 102.813 41.764 102.813 41.676V38.376C102.813 38.248 102.793 38.14 102.753 38.052C102.713 37.964 102.657 37.9 102.585 37.86C102.521 37.812 102.437 37.788 102.333 37.788C102.237 37.788 102.153 37.812 102.081 37.86C102.009 37.9 101.953 37.964 101.913 38.052C101.881 38.14 101.865 38.248 101.865 38.376V41.676C101.865 41.764 101.833 41.84 101.769 41.904C101.705 41.968 101.629 42 101.541 42H99.4289C99.3409 42 99.2649 41.968 99.2009 41.904C99.1369 41.84 99.1049 41.764 99.1049 41.676V38.376C99.1049 38.248 99.0849 38.14 99.0449 38.052C99.0049 37.964 98.9489 37.9 98.8769 37.86C98.8129 37.812 98.7289 37.788 98.6249 37.788C98.5289 37.788 98.4449 37.812 98.3729 37.86C98.3009 37.908 98.2449 37.976 98.2049 38.064C98.1649 38.144 98.1449 38.248 98.1449 38.376V41.676C98.1449 41.764 98.1129 41.84 98.0489 41.904C97.9849 41.968 97.9089 42 97.8209 42H95.6609ZM106.923 42C106.835 42 106.759 41.968 106.695 41.904C106.631 41.84 106.599 41.764 106.599 41.676V36.084C106.599 35.996 106.631 35.92 106.695 35.856C106.759 35.792 106.835 35.76 106.923 35.76H109.071C109.159 35.76 109.235 35.792 109.299 35.856C109.363 35.92 109.395 35.996 109.395 36.084V41.676C109.395 41.764 109.363 41.84 109.299 41.904C109.235 41.968 109.159 42 109.071 42H106.923ZM106.983 35.1C106.895 35.1 106.819 35.068 106.755 35.004C106.691 34.94 106.659 34.864 106.659 34.776V33.324C106.659 33.236 106.691 33.16 106.755 33.096C106.819 33.032 106.895 33 106.983 33H109.011C109.099 33 109.175 33.032 109.239 33.096C109.303 33.16 109.335 33.236 109.335 33.324V34.776C109.335 34.864 109.303 34.94 109.239 35.004C109.175 35.068 109.099 35.1 109.011 35.1H106.983ZM110.802 42C110.714 42 110.638 41.968 110.574 41.904C110.51 41.84 110.478 41.764 110.478 41.676V36.084C110.478 35.996 110.51 35.92 110.574 35.856C110.638 35.792 110.714 35.76 110.802 35.76H112.902C112.99 35.76 113.066 35.792 113.13 35.856C113.194 35.92 113.226 35.996 113.226 36.084V36.48C113.426 36.248 113.702 36.052 114.054 35.892C114.406 35.724 114.794 35.64 115.218 35.64C115.626 35.64 116.006 35.736 116.358 35.928C116.71 36.12 116.994 36.416 117.21 36.816C117.434 37.216 117.546 37.732 117.546 38.364V41.676C117.546 41.764 117.514 41.84 117.45 41.904C117.386 41.968 117.31 42 117.222 42H114.93C114.842 42 114.766 41.968 114.702 41.904C114.638 41.84 114.606 41.764 114.606 41.676V38.448C114.606 38.232 114.554 38.068 114.45 37.956C114.346 37.844 114.198 37.788 114.006 37.788C113.814 37.788 113.666 37.844 113.562 37.956C113.458 38.068 113.406 38.232 113.406 38.448V41.676C113.406 41.764 113.374 41.84 113.31 41.904C113.246 41.968 113.17 42 113.082 42H110.802ZM118.887 42C118.799 42 118.723 41.968 118.659 41.904C118.595 41.84 118.563 41.764 118.563 41.676V36.084C118.563 35.996 118.595 35.92 118.659 35.856C118.723 35.792 118.799 35.76 118.887 35.76H121.035C121.123 35.76 121.199 35.792 121.263 35.856C121.327 35.92 121.359 35.996 121.359 36.084V41.676C121.359 41.764 121.327 41.84 121.263 41.904C121.199 41.968 121.123 42 121.035 42H118.887ZM118.947 35.1C118.859 35.1 118.783 35.068 118.719 35.004C118.655 34.94 118.623 34.864 118.623 34.776V33.324C118.623 33.236 118.655 33.16 118.719 33.096C118.783 33.032 118.859 33 118.947 33H120.975C121.063 33 121.139 33.032 121.203 33.096C121.267 33.16 121.299 33.236 121.299 33.324V34.776C121.299 34.864 121.267 34.94 121.203 35.004C121.139 35.068 121.063 35.1 120.975 35.1H118.947ZM125.754 42.12C125.018 42.12 124.398 42.02 123.894 41.82C123.39 41.62 123.002 41.32 122.73 40.92C122.466 40.52 122.314 40.028 122.274 39.444C122.266 39.26 122.262 39.072 122.262 38.88C122.262 38.68 122.266 38.492 122.274 38.316C122.314 37.724 122.478 37.232 122.766 36.84C123.054 36.44 123.45 36.14 123.954 35.94C124.458 35.74 125.058 35.64 125.754 35.64C126.45 35.64 127.05 35.74 127.554 35.94C128.058 36.14 128.454 36.44 128.742 36.84C129.03 37.232 129.194 37.724 129.234 38.316C129.25 38.492 129.258 38.68 129.258 38.88C129.258 39.072 129.25 39.26 129.234 39.444C129.194 40.028 129.038 40.52 128.766 40.92C128.502 41.32 128.118 41.62 127.614 41.82C127.11 42.02 126.49 42.12 125.754 42.12ZM125.754 40.2C125.986 40.2 126.13 40.136 126.186 40.008C126.242 39.872 126.278 39.664 126.294 39.384C126.302 39.264 126.306 39.096 126.306 38.88C126.306 38.664 126.302 38.496 126.294 38.376C126.278 38.112 126.242 37.912 126.186 37.776C126.13 37.632 125.986 37.56 125.754 37.56C125.53 37.56 125.386 37.632 125.322 37.776C125.266 37.912 125.23 38.112 125.214 38.376C125.206 38.496 125.202 38.664 125.202 38.88C125.202 39.096 125.206 39.264 125.214 39.384C125.23 39.664 125.266 39.872 125.322 40.008C125.386 40.136 125.53 40.2 125.754 40.2ZM130.466 42C130.378 42 130.302 41.968 130.238 41.904C130.174 41.84 130.142 41.764 130.142 41.676V36.084C130.142 35.996 130.174 35.92 130.238 35.856C130.302 35.792 130.378 35.76 130.466 35.76H132.566C132.654 35.76 132.73 35.792 132.794 35.856C132.858 35.92 132.89 35.996 132.89 36.084V36.48C133.09 36.248 133.366 36.052 133.718 35.892C134.07 35.724 134.458 35.64 134.882 35.64C135.29 35.64 135.67 35.736 136.022 35.928C136.374 36.12 136.658 36.416 136.874 36.816C137.098 37.216 137.21 37.732 137.21 38.364V41.676C137.21 41.764 137.178 41.84 137.114 41.904C137.05 41.968 136.974 42 136.886 42H134.594C134.506 42 134.43 41.968 134.366 41.904C134.302 41.84 134.27 41.764 134.27 41.676V38.448C134.27 38.232 134.218 38.068 134.114 37.956C134.01 37.844 133.862 37.788 133.67 37.788C133.478 37.788 133.33 37.844 133.226 37.956C133.122 38.068 133.07 38.232 133.07 38.448V41.676C133.07 41.764 133.038 41.84 132.974 41.904C132.91 41.968 132.834 42 132.746 42H130.466ZM144.918 42.12C144.502 42.12 144.15 42.056 143.862 41.928C143.574 41.792 143.334 41.616 143.142 41.4V41.676C143.142 41.764 143.11 41.84 143.046 41.904C142.982 41.968 142.906 42 142.818 42H140.778C140.69 42 140.614 41.968 140.55 41.904C140.486 41.84 140.454 41.764 140.454 41.676V33.804C140.454 33.716 140.486 33.64 140.55 33.576C140.614 33.512 140.69 33.48 140.778 33.48H142.998C143.086 33.48 143.162 33.512 143.226 33.576C143.29 33.64 143.322 33.716 143.322 33.804V36.204C143.514 36.028 143.742 35.892 144.006 35.796C144.278 35.692 144.582 35.64 144.918 35.64C145.27 35.64 145.594 35.696 145.89 35.808C146.194 35.92 146.458 36.088 146.682 36.312C146.914 36.536 147.098 36.824 147.234 37.176C147.37 37.52 147.446 37.928 147.462 38.4C147.47 38.576 147.474 38.732 147.474 38.868C147.474 39.004 147.47 39.164 147.462 39.348C147.438 39.852 147.358 40.28 147.222 40.632C147.086 40.984 146.902 41.272 146.67 41.496C146.446 41.712 146.186 41.872 145.89 41.976C145.594 42.072 145.27 42.12 144.918 42.12ZM143.922 39.972C144.074 39.972 144.19 39.944 144.27 39.888C144.35 39.832 144.406 39.752 144.438 39.648C144.478 39.544 144.506 39.42 144.522 39.276C144.546 39.012 144.546 38.748 144.522 38.484C144.506 38.34 144.478 38.216 144.438 38.112C144.406 38.008 144.35 37.928 144.27 37.872C144.19 37.816 144.074 37.788 143.922 37.788C143.786 37.788 143.674 37.812 143.586 37.86C143.506 37.908 143.442 37.976 143.394 38.064C143.354 38.152 143.33 38.26 143.322 38.388C143.314 38.564 143.31 38.712 143.31 38.832C143.31 38.944 143.314 39.092 143.322 39.276C143.33 39.42 143.35 39.544 143.382 39.648C143.422 39.752 143.486 39.832 143.574 39.888C143.662 39.944 143.778 39.972 143.922 39.972ZM150.656 42.12C150.256 42.12 149.876 42.024 149.516 41.832C149.164 41.64 148.876 41.344 148.652 40.944C148.436 40.544 148.328 40.028 148.328 39.396V36.084C148.328 35.996 148.36 35.92 148.424 35.856C148.488 35.792 148.564 35.76 148.652 35.76H150.944C151.032 35.76 151.108 35.792 151.172 35.856C151.236 35.92 151.268 35.996 151.268 36.084V39.312C151.268 39.752 151.468 39.972 151.868 39.972C152.06 39.972 152.208 39.916 152.312 39.804C152.416 39.692 152.468 39.528 152.468 39.312V36.084C152.468 35.996 152.5 35.92 152.564 35.856C152.628 35.792 152.704 35.76 152.792 35.76H155.072C155.16 35.76 155.236 35.792 155.3 35.856C155.364 35.92 155.396 35.996 155.396 36.084V41.676C155.396 41.764 155.364 41.84 155.3 41.904C155.236 41.968 155.16 42 155.072 42H152.972C152.884 42 152.808 41.968 152.744 41.904C152.68 41.84 152.648 41.764 152.648 41.676V41.28C152.448 41.576 152.172 41.792 151.82 41.928C151.468 42.056 151.08 42.12 150.656 42.12ZM160.338 42C159.762 42 159.246 41.924 158.79 41.772C158.342 41.612 157.986 41.344 157.722 40.968C157.466 40.592 157.338 40.076 157.338 39.42V37.86H156.39C156.302 37.86 156.226 37.828 156.162 37.764C156.098 37.7 156.066 37.624 156.066 37.536V36.084C156.066 35.996 156.098 35.92 156.162 35.856C156.226 35.792 156.302 35.76 156.39 35.76H157.338V33.804C157.338 33.716 157.37 33.64 157.434 33.576C157.498 33.512 157.574 33.48 157.662 33.48H159.762C159.85 33.48 159.926 33.512 159.99 33.576C160.054 33.64 160.086 33.716 160.086 33.804V35.76H161.598C161.686 35.76 161.762 35.792 161.826 35.856C161.89 35.92 161.922 35.996 161.922 36.084V37.536C161.922 37.624 161.89 37.7 161.826 37.764C161.762 37.828 161.686 37.86 161.598 37.86H160.086V39.18C160.086 39.364 160.126 39.512 160.206 39.624C160.294 39.728 160.426 39.78 160.602 39.78H161.694C161.782 39.78 161.858 39.812 161.922 39.876C161.986 39.94 162.018 40.016 162.018 40.104V41.676C162.018 41.764 161.986 41.84 161.922 41.904C161.858 41.968 161.782 42 161.694 42H160.338ZM70.9047 53C70.7847 53 70.6927 52.968 70.6287 52.904C70.5727 52.84 70.5327 52.772 70.5087 52.7L68.7567 47.144C68.7487 47.112 68.7447 47.08 68.7447 47.048C68.7447 46.968 68.7727 46.9 68.8287 46.844C68.8847 46.788 68.9527 46.76 69.0327 46.76H70.8807C71.0007 46.76 71.0927 46.792 71.1567 46.856C71.2287 46.92 71.2727 46.984 71.2887 47.048L72.0207 49.544L72.8007 47.048C72.8167 46.984 72.8567 46.92 72.9207 46.856C72.9927 46.792 73.0887 46.76 73.2087 46.76H74.3247C74.4447 46.76 74.5367 46.792 74.6007 46.856C74.6727 46.92 74.7167 46.984 74.7327 47.048L75.5127 49.544L76.2447 47.048C76.2607 46.984 76.3007 46.92 76.3647 46.856C76.4367 46.792 76.5327 46.76 76.6527 46.76H78.5007C78.5807 46.76 78.6487 46.788 78.7047 46.844C78.7607 46.9 78.7887 46.968 78.7887 47.048C78.7887 47.08 78.7847 47.112 78.7767 47.144L77.0247 52.7C77.0007 52.772 76.9567 52.84 76.8927 52.904C76.8367 52.968 76.7487 53 76.6287 53H75.0207C74.9007 53 74.8087 52.968 74.7447 52.904C74.6887 52.84 74.6487 52.772 74.6247 52.7L73.7727 50.276L72.9087 52.7C72.8847 52.772 72.8407 52.84 72.7767 52.904C72.7207 52.968 72.6327 53 72.5127 53H70.9047ZM79.8464 53C79.7584 53 79.6824 52.968 79.6184 52.904C79.5544 52.84 79.5224 52.764 79.5224 52.676V47.084C79.5224 46.996 79.5544 46.92 79.6184 46.856C79.6824 46.792 79.7584 46.76 79.8464 46.76H81.9944C82.0824 46.76 82.1584 46.792 82.2224 46.856C82.2864 46.92 82.3184 46.996 82.3184 47.084V52.676C82.3184 52.764 82.2864 52.84 82.2224 52.904C82.1584 52.968 82.0824 53 81.9944 53H79.8464ZM79.9064 46.1C79.8184 46.1 79.7424 46.068 79.6784 46.004C79.6144 45.94 79.5824 45.864 79.5824 45.776V44.324C79.5824 44.236 79.6144 44.16 79.6784 44.096C79.7424 44.032 79.8184 44 79.9064 44H81.9344C82.0224 44 82.0984 44.032 82.1624 44.096C82.2264 44.16 82.2584 44.236 82.2584 44.324V45.776C82.2584 45.864 82.2264 45.94 82.1624 46.004C82.0984 46.068 82.0224 46.1 81.9344 46.1H79.9064ZM87.2653 53C86.6893 53 86.1733 52.924 85.7173 52.772C85.2693 52.612 84.9133 52.344 84.6493 51.968C84.3933 51.592 84.2653 51.076 84.2653 50.42V48.86H83.3173C83.2293 48.86 83.1533 48.828 83.0893 48.764C83.0253 48.7 82.9933 48.624 82.9933 48.536V47.084C82.9933 46.996 83.0253 46.92 83.0893 46.856C83.1533 46.792 83.2293 46.76 83.3173 46.76H84.2653V44.804C84.2653 44.716 84.2973 44.64 84.3613 44.576C84.4253 44.512 84.5013 44.48 84.5893 44.48H86.6893C86.7773 44.48 86.8533 44.512 86.9173 44.576C86.9813 44.64 87.0133 44.716 87.0133 44.804V46.76H88.5253C88.6133 46.76 88.6893 46.792 88.7533 46.856C88.8173 46.92 88.8493 46.996 88.8493 47.084V48.536C88.8493 48.624 88.8173 48.7 88.7533 48.764C88.6893 48.828 88.6133 48.86 88.5253 48.86H87.0133V50.18C87.0133 50.364 87.0533 50.512 87.1333 50.624C87.2213 50.728 87.3533 50.78 87.5293 50.78H88.6213C88.7093 50.78 88.7853 50.812 88.8493 50.876C88.9133 50.94 88.9453 51.016 88.9453 51.104V52.676C88.9453 52.764 88.9133 52.84 88.8493 52.904C88.7853 52.968 88.7093 53 88.6213 53H87.2653ZM90.112 53C90.024 53 89.948 52.968 89.884 52.904C89.82 52.84 89.788 52.764 89.788 52.676V44.804C89.788 44.716 89.82 44.64 89.884 44.576C89.948 44.512 90.024 44.48 90.112 44.48H92.452C92.54 44.48 92.616 44.512 92.68 44.576C92.744 44.64 92.776 44.716 92.776 44.804V47.384C92.984 47.152 93.248 46.972 93.568 46.844C93.888 46.708 94.232 46.64 94.6 46.64C95.008 46.64 95.392 46.736 95.752 46.928C96.12 47.12 96.416 47.416 96.64 47.816C96.872 48.216 96.988 48.732 96.988 49.364V52.676C96.988 52.764 96.956 52.84 96.892 52.904C96.828 52.968 96.752 53 96.664 53H94.312C94.224 53 94.148 52.968 94.084 52.904C94.02 52.84 93.988 52.764 93.988 52.676V49.448C93.988 49.232 93.936 49.068 93.832 48.956C93.728 48.844 93.58 48.788 93.388 48.788C93.196 48.788 93.044 48.844 92.932 48.956C92.828 49.068 92.776 49.232 92.776 49.448V52.676C92.776 52.764 92.744 52.84 92.68 52.904C92.616 52.968 92.54 53 92.452 53H90.112ZM100.553 53C100.465 53 100.389 52.968 100.325 52.904C100.261 52.84 100.229 52.764 100.229 52.676V44.804C100.229 44.716 100.261 44.64 100.325 44.576C100.389 44.512 100.465 44.48 100.553 44.48H102.893C102.981 44.48 103.057 44.512 103.121 44.576C103.185 44.64 103.217 44.716 103.217 44.804V47.384C103.425 47.152 103.689 46.972 104.009 46.844C104.329 46.708 104.673 46.64 105.041 46.64C105.449 46.64 105.833 46.736 106.193 46.928C106.561 47.12 106.857 47.416 107.081 47.816C107.313 48.216 107.429 48.732 107.429 49.364V52.676C107.429 52.764 107.397 52.84 107.333 52.904C107.269 52.968 107.193 53 107.105 53H104.753C104.665 53 104.589 52.968 104.525 52.904C104.461 52.84 104.429 52.764 104.429 52.676V49.448C104.429 49.232 104.377 49.068 104.273 48.956C104.169 48.844 104.021 48.788 103.829 48.788C103.637 48.788 103.485 48.844 103.373 48.956C103.269 49.068 103.217 49.232 103.217 49.448V52.676C103.217 52.764 103.185 52.84 103.121 52.904C103.057 52.968 102.981 53 102.893 53H100.553ZM111.756 53.12C111.02 53.12 110.4 53.02 109.896 52.82C109.392 52.62 109.004 52.32 108.732 51.92C108.468 51.52 108.316 51.028 108.276 50.444C108.268 50.26 108.264 50.072 108.264 49.88C108.264 49.68 108.268 49.492 108.276 49.316C108.316 48.724 108.48 48.232 108.768 47.84C109.056 47.44 109.452 47.14 109.956 46.94C110.46 46.74 111.06 46.64 111.756 46.64C112.452 46.64 113.052 46.74 113.556 46.94C114.06 47.14 114.456 47.44 114.744 47.84C115.032 48.232 115.196 48.724 115.236 49.316C115.252 49.492 115.26 49.68 115.26 49.88C115.26 50.072 115.252 50.26 115.236 50.444C115.196 51.028 115.04 51.52 114.768 51.92C114.504 52.32 114.12 52.62 113.616 52.82C113.112 53.02 112.492 53.12 111.756 53.12ZM111.756 51.2C111.988 51.2 112.132 51.136 112.188 51.008C112.244 50.872 112.28 50.664 112.296 50.384C112.304 50.264 112.308 50.096 112.308 49.88C112.308 49.664 112.304 49.496 112.296 49.376C112.28 49.112 112.244 48.912 112.188 48.776C112.132 48.632 111.988 48.56 111.756 48.56C111.532 48.56 111.388 48.632 111.324 48.776C111.268 48.912 111.232 49.112 111.216 49.376C111.208 49.496 111.204 49.664 111.204 49.88C111.204 50.096 111.208 50.264 111.216 50.384C111.232 50.664 111.268 50.872 111.324 51.008C111.388 51.136 111.532 51.2 111.756 51.2ZM116.468 53C116.38 53 116.304 52.968 116.24 52.904C116.176 52.84 116.144 52.764 116.144 52.676V47.084C116.144 46.996 116.176 46.92 116.24 46.856C116.304 46.792 116.38 46.76 116.468 46.76H118.568C118.656 46.76 118.732 46.792 118.796 46.856C118.86 46.92 118.892 46.996 118.892 47.084V47.504C119.148 47.28 119.432 47.1 119.744 46.964C120.064 46.828 120.404 46.76 120.764 46.76H121.34C121.428 46.76 121.504 46.792 121.568 46.856C121.632 46.92 121.664 46.996 121.664 47.084V48.956C121.664 49.044 121.632 49.12 121.568 49.184C121.504 49.248 121.428 49.28 121.34 49.28H119.792C119.552 49.28 119.372 49.34 119.252 49.46C119.132 49.58 119.072 49.76 119.072 50V52.676C119.072 52.764 119.04 52.84 118.976 52.904C118.912 52.968 118.836 53 118.748 53H116.468ZM125.282 53.12C124.706 53.12 124.214 53.064 123.806 52.952C123.406 52.832 123.078 52.684 122.822 52.508C122.574 52.324 122.39 52.136 122.27 51.944C122.15 51.744 122.086 51.564 122.078 51.404C122.07 51.316 122.094 51.24 122.15 51.176C122.214 51.112 122.286 51.08 122.366 51.08H124.454C124.462 51.08 124.47 51.08 124.478 51.08C124.486 51.08 124.494 51.08 124.502 51.08C124.606 51.088 124.698 51.124 124.778 51.188C124.866 51.244 124.954 51.3 125.042 51.356C125.138 51.412 125.246 51.44 125.366 51.44C125.43 51.44 125.49 51.424 125.546 51.392C125.61 51.36 125.642 51.316 125.642 51.26C125.642 51.188 125.618 51.124 125.57 51.068C125.53 51.012 125.422 50.956 125.246 50.9C125.078 50.836 124.794 50.768 124.394 50.696C124.026 50.624 123.674 50.512 123.338 50.36C123.002 50.208 122.726 49.996 122.51 49.724C122.302 49.452 122.198 49.108 122.198 48.692C122.198 48.348 122.314 48.02 122.546 47.708C122.778 47.396 123.118 47.14 123.566 46.94C124.022 46.74 124.578 46.64 125.234 46.64C125.73 46.64 126.17 46.696 126.554 46.808C126.938 46.92 127.262 47.064 127.526 47.24C127.798 47.416 128.006 47.604 128.15 47.804C128.294 48.004 128.37 48.188 128.378 48.356C128.386 48.444 128.362 48.52 128.306 48.584C128.25 48.648 128.186 48.68 128.114 48.68H126.218C126.202 48.68 126.182 48.68 126.158 48.68C126.134 48.68 126.114 48.68 126.098 48.68C125.986 48.68 125.886 48.652 125.798 48.596C125.71 48.532 125.622 48.472 125.534 48.416C125.446 48.352 125.342 48.32 125.222 48.32C125.166 48.32 125.11 48.34 125.054 48.38C125.006 48.412 124.982 48.456 124.982 48.512C124.982 48.576 125.006 48.64 125.054 48.704C125.102 48.76 125.218 48.816 125.402 48.872C125.586 48.92 125.886 48.976 126.302 49.04C126.878 49.12 127.338 49.268 127.682 49.484C128.026 49.7 128.27 49.948 128.414 50.228C128.566 50.508 128.642 50.784 128.642 51.056C128.642 51.48 128.51 51.848 128.246 52.16C127.99 52.472 127.61 52.712 127.106 52.88C126.61 53.04 126.002 53.12 125.282 53.12ZM132.661 53.12C131.613 53.12 130.777 52.864 130.153 52.352C129.537 51.832 129.229 51.012 129.229 49.892C129.229 49.876 129.229 49.86 129.229 49.844C129.229 49.828 129.229 49.816 129.229 49.808C129.245 49.12 129.393 48.54 129.673 48.068C129.961 47.596 130.357 47.24 130.861 47C131.373 46.76 131.969 46.64 132.649 46.64C133.433 46.64 134.077 46.792 134.581 47.096C135.085 47.392 135.457 47.788 135.697 48.284C135.945 48.772 136.069 49.312 136.069 49.904V50.264C136.069 50.352 136.037 50.428 135.973 50.492C135.909 50.556 135.833 50.588 135.745 50.588H132.169C132.169 50.596 132.169 50.604 132.169 50.612C132.169 50.62 132.169 50.632 132.169 50.648C132.169 50.808 132.181 50.944 132.205 51.056C132.237 51.16 132.289 51.24 132.361 51.296C132.433 51.352 132.525 51.38 132.637 51.38C132.685 51.38 132.725 51.372 132.757 51.356C132.797 51.34 132.833 51.316 132.865 51.284C132.905 51.244 132.945 51.204 132.985 51.164C133.057 51.092 133.117 51.048 133.165 51.032C133.213 51.008 133.285 50.996 133.381 50.996H135.649C135.729 50.996 135.793 51.02 135.841 51.068C135.897 51.116 135.921 51.18 135.913 51.26C135.905 51.412 135.833 51.596 135.697 51.812C135.569 52.02 135.373 52.224 135.109 52.424C134.845 52.624 134.509 52.792 134.101 52.928C133.693 53.056 133.213 53.12 132.661 53.12ZM132.169 49.088H133.129V49.076C133.129 48.9 133.109 48.756 133.069 48.644C133.037 48.532 132.985 48.452 132.913 48.404C132.841 48.348 132.753 48.32 132.649 48.32C132.545 48.32 132.457 48.348 132.385 48.404C132.313 48.452 132.257 48.532 132.217 48.644C132.185 48.756 132.169 48.9 132.169 49.076V49.088ZM139.837 53.12C139.261 53.12 138.769 53.064 138.361 52.952C137.961 52.832 137.633 52.684 137.377 52.508C137.129 52.324 136.945 52.136 136.825 51.944C136.705 51.744 136.641 51.564 136.633 51.404C136.625 51.316 136.649 51.24 136.705 51.176C136.769 51.112 136.841 51.08 136.921 51.08H139.009C139.017 51.08 139.025 51.08 139.033 51.08C139.041 51.08 139.049 51.08 139.057 51.08C139.161 51.088 139.253 51.124 139.333 51.188C139.421 51.244 139.509 51.3 139.597 51.356C139.693 51.412 139.801 51.44 139.921 51.44C139.985 51.44 140.045 51.424 140.101 51.392C140.165 51.36 140.197 51.316 140.197 51.26C140.197 51.188 140.173 51.124 140.125 51.068C140.085 51.012 139.977 50.956 139.801 50.9C139.633 50.836 139.349 50.768 138.949 50.696C138.581 50.624 138.229 50.512 137.893 50.36C137.557 50.208 137.281 49.996 137.065 49.724C136.857 49.452 136.753 49.108 136.753 48.692C136.753 48.348 136.869 48.02 137.101 47.708C137.333 47.396 137.673 47.14 138.121 46.94C138.577 46.74 139.133 46.64 139.789 46.64C140.285 46.64 140.725 46.696 141.109 46.808C141.493 46.92 141.817 47.064 142.081 47.24C142.353 47.416 142.561 47.604 142.705 47.804C142.849 48.004 142.925 48.188 142.933 48.356C142.941 48.444 142.917 48.52 142.861 48.584C142.805 48.648 142.741 48.68 142.669 48.68H140.773C140.757 48.68 140.737 48.68 140.713 48.68C140.689 48.68 140.669 48.68 140.653 48.68C140.541 48.68 140.441 48.652 140.353 48.596C140.265 48.532 140.177 48.472 140.089 48.416C140.001 48.352 139.897 48.32 139.777 48.32C139.721 48.32 139.665 48.34 139.609 48.38C139.561 48.412 139.537 48.456 139.537 48.512C139.537 48.576 139.561 48.64 139.609 48.704C139.657 48.76 139.773 48.816 139.957 48.872C140.141 48.92 140.441 48.976 140.857 49.04C141.433 49.12 141.893 49.268 142.237 49.484C142.581 49.7 142.825 49.948 142.969 50.228C143.121 50.508 143.197 50.784 143.197 51.056C143.197 51.48 143.065 51.848 142.801 52.16C142.545 52.472 142.165 52.712 141.661 52.88C141.165 53.04 140.557 53.12 139.837 53.12Z" fill="black"/>
</svg>
