<svg width="1147" height="355" viewBox="0 0 1147 355" fill="none" xmlns="http://www.w3.org/2000/svg">
<path d="M7.33066 350.069C5.33962 350.069 3.62008 348.919 2.17205 346.618C0.724015 343.988 0 340.701 0 336.757V18.2431C0 14.6273 0.724015 11.5046 2.17205 8.875C3.62008 6.24537 5.33962 4.93055 7.33066 4.93055H60.5458C62.5369 4.93055 64.2564 6.24537 65.7044 8.875C67.1525 11.5046 67.8765 14.6273 67.8765 18.2431V121.785H111.86V18.2431C111.86 14.6273 112.584 11.5046 114.032 8.875C115.481 6.24537 117.2 4.93055 119.191 4.93055H172.406C174.397 4.93055 176.117 6.24537 177.565 8.875C179.013 11.5046 179.737 14.6273 179.737 18.2431V336.757C179.737 340.373 179.013 343.495 177.565 346.125C176.117 348.755 174.397 350.069 172.406 350.069H119.191C117.2 350.069 115.481 348.755 114.032 346.125C112.584 343.495 111.86 340.373 111.86 336.757V230.257H67.8765V336.757C67.8765 340.373 67.1525 343.495 65.7044 346.125C64.2564 348.755 62.5369 350.069 60.5458 350.069H7.33066Z" fill="#F6F6F6"/>
<path d="M295.524 355C277.785 355 262.219 350.069 248.825 340.208C235.611 330.347 225.113 315.556 217.33 295.833C209.728 275.782 205.565 251.13 204.841 221.875C204.66 208.398 204.569 194.1 204.569 178.979C204.569 163.859 204.66 149.231 204.841 135.097C205.565 106.171 209.728 81.6829 217.33 61.6319C224.932 41.581 235.43 26.2963 248.825 15.7778C262.219 5.25926 277.785 0 295.524 0C313.262 0 328.828 5.25926 342.223 15.7778C355.617 26.2963 366.115 41.581 373.717 61.6319C381.5 81.6829 385.664 106.171 386.207 135.097C386.569 149.231 386.75 163.859 386.75 178.979C386.75 194.1 386.569 208.398 386.207 221.875C385.483 251.13 381.229 275.782 373.446 295.833C365.844 315.556 355.345 330.347 341.951 340.208C328.738 350.069 313.262 355 295.524 355ZM295.524 258.854C301.497 258.854 306.293 255.731 309.913 249.486C313.533 242.912 315.434 232.722 315.615 218.917C315.977 204.782 316.158 190.812 316.158 177.007C316.158 163.201 315.977 149.56 315.615 136.083C315.434 126.88 314.438 119.319 312.628 113.403C310.999 107.486 308.737 103.213 305.841 100.583C302.945 97.625 299.506 96.1458 295.524 96.1458C291.722 96.1458 288.283 97.625 285.206 100.583C282.31 103.213 279.957 107.486 278.147 113.403C276.518 119.319 275.613 126.88 275.432 136.083C275.251 149.56 275.161 163.201 275.161 177.007C275.161 190.812 275.251 204.782 275.432 218.917C275.794 232.722 277.695 242.912 281.134 249.486C284.754 255.731 289.55 258.854 295.524 258.854Z" fill="#F6F6F6"/>
<path d="M418.567 350.069C416.576 350.069 414.856 348.755 413.408 346.125C411.96 343.495 411.236 340.373 411.236 336.757V18.2431C411.236 14.6273 411.96 11.5046 413.408 8.875C414.856 6.24537 416.576 4.93055 418.567 4.93055H498.932C524.997 4.93055 545.36 15.6134 560.021 36.9792C574.683 58.3449 582.013 87.5995 582.013 124.743C582.013 146.766 579.208 165.995 573.597 182.431C568.166 198.537 561.198 211.521 552.691 221.382L586.086 333.799C586.629 335.771 586.9 337.579 586.9 339.222C586.9 342.181 586.267 344.81 585 347.111C583.914 349.083 582.556 350.069 580.927 350.069H525.268C521.648 350.069 518.933 348.426 517.123 345.139C515.313 341.852 514.137 339.058 513.594 336.757L490.244 242.583H479.112V336.757C479.112 340.373 478.388 343.495 476.94 346.125C475.492 348.755 473.773 350.069 471.782 350.069H418.567ZM479.112 148.903H498.932C503.095 148.903 506.173 146.438 508.164 141.507C510.336 136.248 511.422 130.331 511.422 123.757C511.422 117.183 510.426 111.102 508.435 105.514C506.625 99.5972 503.457 96.6389 498.932 96.6389H479.112V148.903Z" fill="#F6F6F6"/>
<path d="M686.456 355C666.365 355 649.803 350.069 636.77 340.208C623.738 330.347 613.964 317.363 607.448 301.257C600.932 285.15 597.493 268.058 597.131 249.979C597.131 247.021 597.674 244.556 598.76 242.583C600.027 240.282 601.475 239.132 603.104 239.132H654.69C657.586 239.132 659.758 239.954 661.206 241.597C662.835 242.912 664.555 244.884 666.365 247.514C668.175 249.815 669.985 251.951 671.795 253.924C673.786 255.567 675.958 256.882 678.311 257.868C680.845 258.525 683.56 258.854 686.456 258.854C692.61 258.854 697.497 257.704 701.117 255.403C704.918 252.773 706.819 249.322 706.819 245.049C706.819 241.104 705.733 237.817 703.561 235.188C701.57 232.558 698.04 230.257 692.972 228.285C687.904 225.984 680.845 223.847 671.795 221.875C657.495 218.259 645.097 212.178 634.598 203.632C624.1 195.086 615.955 183.417 610.163 168.625C604.552 153.505 601.746 135.097 601.746 113.403C601.746 91.0509 605.185 71.3287 612.063 54.2361C619.123 37.1435 628.806 23.831 641.115 14.2986C653.604 4.7662 668.084 0 684.555 0C698.131 0 710.168 3.28703 720.666 9.8611C731.164 16.1065 740.033 24.4884 747.273 35.0069C754.513 45.1968 760.034 56.2083 763.835 68.0417C767.636 79.875 769.627 91.2153 769.808 102.063C769.808 105.021 769.175 107.65 767.908 109.951C766.822 111.924 765.555 112.91 764.107 112.91H709.806C707.271 112.91 705.19 112.252 703.561 110.938C702.113 109.623 700.574 107.65 698.945 105.021C698.04 103.377 696.321 101.569 693.787 99.5972C691.434 97.2963 688.357 96.1458 684.555 96.1458C680.03 96.1458 676.682 97.4606 674.51 100.09C672.519 102.391 671.523 105.678 671.523 109.951C671.523 112.91 672.338 115.704 673.967 118.333C675.596 120.963 678.582 123.264 682.926 125.236C687.271 127.208 693.515 129.181 701.66 131.153C719.761 135.097 734.241 141.507 745.101 150.382C756.143 158.928 764.107 170.433 768.994 184.896C774.062 199.359 776.596 217.273 776.596 238.639C776.596 262.634 772.614 283.343 764.65 300.764C756.867 318.185 746.187 331.662 732.612 341.194C719.037 350.398 703.651 355 686.456 355Z" fill="#F6F6F6"/>
<path d="M803.819 350.069C801.828 350.069 800.108 348.755 798.66 346.125C797.212 343.495 796.488 340.373 796.488 336.757V18.2431C796.488 14.6273 797.212 11.5046 798.66 8.875C800.108 6.24537 801.828 4.93055 803.819 4.93055H943.101C945.092 4.93055 946.812 6.24537 948.26 8.875C949.708 11.5046 950.432 14.6273 950.432 18.2431V87.7639C950.432 91.3796 949.708 94.5023 948.26 97.132C946.812 99.7616 945.092 101.076 943.101 101.076H861.649V132.139H937.128C939.119 132.139 940.839 133.454 942.287 136.083C943.735 138.713 944.459 141.836 944.459 145.451V209.549C944.459 213.164 943.735 216.287 942.287 218.917C940.839 221.546 939.119 222.861 937.128 222.861H861.649V253.924H945.273C947.264 253.924 948.984 255.238 950.432 257.868C951.88 260.498 952.604 263.62 952.604 267.236V336.757C952.604 340.373 951.88 343.495 950.432 346.125C948.984 348.755 947.264 350.069 945.273 350.069H803.819Z" fill="#F6F6F6"/>
<path d="M1056.86 355C1036.77 355 1020.21 350.069 1007.17 340.208C994.142 330.347 984.368 317.363 977.852 301.257C971.336 285.15 967.897 268.058 967.535 249.979C967.535 247.021 968.078 244.556 969.164 242.583C970.431 240.282 971.879 239.132 973.508 239.132H1025.09C1027.99 239.132 1030.16 239.954 1031.61 241.597C1033.24 242.912 1034.96 244.884 1036.77 247.514C1038.58 249.815 1040.39 251.951 1042.2 253.924C1044.19 255.567 1046.36 256.882 1048.71 257.868C1051.25 258.525 1053.96 258.854 1056.86 258.854C1063.01 258.854 1067.9 257.704 1071.52 255.403C1075.32 252.773 1077.22 249.322 1077.22 245.049C1077.22 241.104 1076.14 237.817 1073.96 235.188C1071.97 232.558 1068.44 230.257 1063.38 228.285C1058.31 225.984 1051.25 223.847 1042.2 221.875C1027.9 218.259 1015.5 212.178 1005 203.632C994.504 195.086 986.359 183.417 980.567 168.625C974.956 153.505 972.15 135.097 972.15 113.403C972.15 91.0509 975.589 71.3287 982.467 54.2361C989.527 37.1435 999.21 23.831 1011.52 14.2986C1024.01 4.7662 1038.49 0 1054.96 0C1068.53 0 1080.57 3.28703 1091.07 9.8611C1101.57 16.1065 1110.44 24.4884 1117.68 35.0069C1124.92 45.1968 1130.44 56.2083 1134.24 68.0417C1138.04 79.875 1140.03 91.2153 1140.21 102.063C1140.21 105.021 1139.58 107.65 1138.31 109.951C1137.23 111.924 1135.96 112.91 1134.51 112.91H1080.21C1077.68 112.91 1075.59 112.252 1073.96 110.938C1072.52 109.623 1070.98 107.65 1069.35 105.021C1068.44 103.377 1066.72 101.569 1064.19 99.5972C1061.84 97.2963 1058.76 96.1458 1054.96 96.1458C1050.43 96.1458 1047.09 97.4606 1044.91 100.09C1042.92 102.391 1041.93 105.678 1041.93 109.951C1041.93 112.91 1042.74 115.704 1044.37 118.333C1046 120.963 1048.99 123.264 1053.33 125.236C1057.67 127.208 1063.92 129.181 1072.06 131.153C1090.16 135.097 1104.65 141.507 1115.51 150.382C1126.55 158.928 1134.51 170.433 1139.4 184.896C1144.47 199.359 1147 217.273 1147 238.639C1147 262.634 1143.02 283.343 1135.05 300.764C1127.27 318.185 1116.59 331.662 1103.02 341.194C1089.44 350.398 1074.06 355 1056.86 355Z" fill="#F6F6F6"/>
</svg>
